<svg width="570" height="407" viewBox="0 0 570 407" fill="none" xmlns="http://www.w3.org/2000/svg">
<path d="M486.023 265.161C461.157 258.234 435.877 256.154 410.183 258.921C397.577 260.281 387.69 261.691 380.523 263.151C366.077 266.098 349.28 270.494 330.133 276.341C325.587 277.728 321.07 279.284 316.583 281.011C292.583 288.401 269.393 295.481 244.133 300.991C221.107 306.004 197.88 308.191 174.453 307.551C146.46 306.791 119.503 300.744 93.5834 289.411C83.23 284.884 73.4701 279.344 64.3034 272.791C53.0167 264.724 43.1267 254.718 34.6334 242.771C22.5534 225.791 14.8934 203.271 14.3634 182.181C13.7434 157.491 22.3634 132.941 36.2934 112.451C40.4334 106.351 45.9534 99.1611 51.7534 93.1611C60.74 83.8678 69.6367 76.0144 78.4434 69.6011C94.1334 58.1711 110.453 49.0611 128.973 41.1311C163.987 26.1578 202.383 17.2711 244.163 14.4711C284.61 11.7578 324.53 15.3944 363.923 25.3811C372.603 27.5878 382.267 30.5778 392.913 34.3511C419.413 43.7578 443.417 56.6545 464.923 73.0411C489.603 91.8511 509.763 117.351 518.883 147.141C532.333 191.041 516.993 233.211 486.023 265.161Z" fill="#011B4C"/>
<path d="M501.474 270.422L486.024 265.162C516.994 233.212 532.334 191.042 518.884 147.142C509.764 117.352 489.604 91.8515 464.924 73.0415C443.417 56.6549 419.414 43.7582 392.914 34.3515C382.267 30.5782 372.604 27.5882 363.924 25.3815C324.531 15.3949 284.611 11.7582 244.164 14.4715C202.384 17.2715 163.987 26.1582 128.974 41.1315C110.454 49.0615 94.1339 58.1715 78.4439 69.6015C69.6373 76.0149 60.7406 83.8682 51.7539 93.1615C45.9539 99.1615 40.434 106.352 36.294 112.452C22.364 132.942 13.744 157.492 14.364 182.182C14.894 203.272 22.5539 225.792 34.6339 242.772C43.1273 254.718 53.0173 264.725 64.304 272.792C73.4706 279.345 83.2306 284.885 93.584 289.412C119.504 300.745 146.461 306.792 174.454 307.552C197.881 308.192 221.107 306.005 244.134 300.992C269.394 295.482 292.584 288.402 316.584 281.012C317.344 281.525 318.127 281.882 318.934 282.082C319.236 282.16 319.551 282.167 319.854 282.102C321.354 281.802 323.044 281.302 325.044 281.162C335.191 280.435 345.524 280.552 356.044 281.512C371.397 282.918 385.721 287.568 399.014 295.462C406.801 300.088 413.711 306.108 419.744 313.522C422.144 316.468 423.871 319.658 424.924 323.092C420.944 324.798 417.001 326.512 413.094 328.232C408.387 330.305 404.404 331.925 401.144 333.092C384.824 338.918 368.561 343.635 352.354 347.242C348.294 348.142 341.097 349.422 330.764 351.082C321.951 352.502 314.697 353.468 309.004 353.982C277.097 356.868 247.327 356.368 219.694 352.482C192.394 348.635 167.651 343.035 145.464 335.682C132.111 331.255 117.631 325.198 102.024 317.512C84.1506 308.712 67.7306 297.805 52.764 284.792C37.384 271.432 24.9006 256.155 15.314 238.962C11.594 232.288 8.13729 223.842 4.94396 213.622C-1.79604 192.052 -1.43604 166.882 4.75396 145.942C19.424 96.2915 59.624 60.0916 104.464 37.1716C109.694 34.5016 115.544 32.1715 121.004 29.5015C123.751 28.1615 125.974 27.1615 127.674 26.5015C149.101 18.1682 169.107 12.1149 187.694 8.34154C243.614 -3.02513 299.367 -2.77513 354.954 9.09154C389.374 16.4415 423.594 29.5216 453.594 48.1416C477.654 63.0749 497.611 81.5316 513.464 103.512C518.564 110.585 523.411 119.345 528.004 129.792C537.884 152.232 540.934 176.742 536.764 199.822C533.864 215.862 528.161 231.025 519.654 245.312C514.407 254.112 508.347 262.482 501.474 270.422Z" fill="#98C806"/>
<path d="M333.894 371.971C334.894 371.705 335.734 371.825 336.414 372.331C336.568 372.445 336.697 372.589 336.792 372.754C336.887 372.92 336.945 373.103 336.964 373.291C337.357 377.371 338.271 384.375 339.704 394.301C340.294 398.401 339.644 402.551 335.354 404.671C330.954 406.851 321.594 407.351 320.484 400.641C320.456 400.478 320.462 400.311 320.501 400.151C320.54 399.99 320.613 399.839 320.713 399.707C320.813 399.575 320.939 399.465 321.084 399.383C321.229 399.301 321.389 399.249 321.555 399.231C324.394 398.921 324.855 400.351 326.765 401.721C327.049 401.92 327.367 402.069 327.704 402.161C331.917 403.241 334.484 401.721 335.404 397.601C335.718 396.188 335.804 394.994 335.664 394.021C335.653 393.946 335.623 393.874 335.575 393.815C335.528 393.755 335.465 393.709 335.394 393.681C335.322 393.653 335.244 393.645 335.169 393.658C335.094 393.67 335.023 393.703 334.964 393.751C330.804 397.161 322.834 398.141 320.044 392.371C317.434 386.981 315.504 376.821 322.694 373.521C325.587 372.188 328.401 372.252 331.134 373.711C331.288 373.793 331.464 373.824 331.638 373.801C331.811 373.778 331.975 373.701 332.104 373.581C332.584 373.131 333.025 372.201 333.894 371.971ZM276.794 367.492C277.259 367.483 277.708 367.659 278.044 367.979C278.379 368.299 278.573 368.739 278.584 369.202L279.174 398.811C279.176 399.032 279.113 399.249 278.992 399.433C278.871 399.617 278.697 399.759 278.494 399.841C276.521 400.648 275.164 400.188 274.424 398.461C274.403 398.413 274.372 398.369 274.332 398.334C274.292 398.3 274.244 398.276 274.192 398.263C274.141 398.25 274.087 398.25 274.035 398.262C273.983 398.274 273.935 398.298 273.894 398.331C272.195 399.685 270.918 400.362 270.064 400.362C265.315 400.342 261.665 399.811 259.685 395.112C257.235 389.292 257.234 381.892 262.404 377.702C265.664 375.062 270.414 375.582 273.574 378.192C273.62 378.231 273.677 378.255 273.736 378.262C273.796 378.269 273.857 378.259 273.911 378.233C273.965 378.206 274.01 378.164 274.041 378.113C274.072 378.061 274.086 378.002 274.084 377.942L273.894 368.561C273.892 368.428 273.916 368.297 273.964 368.173C274.012 368.05 274.084 367.937 274.176 367.841C274.268 367.746 274.377 367.669 274.499 367.616C274.62 367.562 274.751 367.534 274.884 367.532L276.794 367.492ZM287.432 376.068C287.552 376.06 287.673 376.076 287.787 376.115C287.901 376.154 288.007 376.215 288.098 376.294C288.188 376.374 288.263 376.471 288.316 376.579C288.37 376.688 288.4 376.806 288.408 376.926L289.81 398.601C289.826 398.844 289.744 399.084 289.583 399.267C289.422 399.45 289.195 399.563 288.951 399.578L286.217 399.755C286.096 399.763 285.975 399.747 285.861 399.708C285.747 399.669 285.641 399.608 285.551 399.529C285.46 399.449 285.385 399.352 285.332 399.243C285.279 399.135 285.248 399.017 285.24 398.897L283.838 377.222C283.822 376.979 283.904 376.738 284.065 376.555C284.226 376.372 284.454 376.26 284.697 376.244L287.432 376.068ZM240.894 377.911C245.254 373.762 253.944 374.551 254.494 381.811C254.681 384.318 254.544 389.905 254.084 398.572C254.071 398.838 253.953 399.088 253.757 399.268C253.56 399.448 253.3 399.542 253.034 399.532L250.274 399.411C250.06 399.401 249.857 399.307 249.71 399.151C249.563 398.994 249.482 398.787 249.484 398.572C249.551 393.885 249.678 390.108 249.864 387.242C250.051 384.195 249.851 382.295 249.265 381.541C248.045 379.968 246.294 379.378 244.015 379.771C241.341 380.231 239.951 382.001 239.845 385.081C239.651 390.588 239.464 394.998 239.284 398.311C239.278 398.436 239.246 398.559 239.19 398.672C239.135 398.785 239.056 398.886 238.96 398.967C238.863 399.049 238.751 399.11 238.63 399.147C238.508 399.184 238.38 399.195 238.254 399.181L235.664 398.902C235.365 398.869 235.091 398.723 234.895 398.494C234.7 398.266 234.6 397.971 234.614 397.671L235.524 376.331C235.53 376.204 235.577 376.08 235.658 375.98C235.739 375.88 235.85 375.806 235.975 375.771C238.407 375.111 239.844 375.761 240.284 377.721C240.299 377.784 240.329 377.843 240.373 377.89C240.417 377.937 240.473 377.972 240.535 377.992C240.597 378.011 240.663 378.013 240.726 377.999C240.788 377.985 240.847 377.955 240.894 377.911ZM298.914 377.091C302.267 374.518 305.771 373.728 309.424 374.721C310.857 375.114 312.111 376.442 313.185 378.702C313.237 378.807 313.271 378.922 313.284 379.041L315.004 396.521C315.034 396.825 314.943 397.131 314.748 397.368C314.553 397.606 314.271 397.758 313.964 397.791L311.444 398.051C311.297 398.065 311.148 398.05 311.007 398.006C310.866 397.963 310.734 397.893 310.621 397.799C310.508 397.705 310.415 397.589 310.347 397.459C310.278 397.329 310.237 397.187 310.225 397.041L308.824 382.301C308.767 381.694 308.579 381.107 308.272 380.579C307.966 380.052 307.549 379.597 307.05 379.246C306.551 378.896 305.982 378.657 305.382 378.547C304.782 378.438 304.165 378.46 303.574 378.612L303.324 378.681C302.015 379.016 300.87 379.811 300.098 380.919C299.325 382.028 298.976 383.377 299.114 384.721L300.414 397.362C300.447 397.703 300.344 398.045 300.127 398.311C299.91 398.577 299.595 398.746 299.254 398.782L297.024 399.011C296.709 399.042 296.394 398.948 296.148 398.749C295.903 398.551 295.746 398.264 295.714 397.952L293.475 376.131C293.457 375.971 293.498 375.811 293.589 375.677C293.68 375.543 293.818 375.446 293.975 375.402C295.934 374.849 297.301 375.345 298.074 376.891C298.111 376.965 298.163 377.031 298.227 377.082C298.292 377.134 298.367 377.17 298.447 377.189C298.527 377.208 298.611 377.21 298.691 377.193C298.772 377.176 298.848 377.141 298.914 377.091ZM220.254 373.681C228.224 373.731 232.655 380.412 230.935 387.532C230.864 387.827 230.686 388.087 230.435 388.262C230.185 388.437 229.879 388.514 229.574 388.481L215.084 386.902C215.036 386.895 214.987 386.897 214.94 386.91C214.894 386.923 214.85 386.946 214.811 386.977C214.773 387.008 214.741 387.046 214.718 387.09C214.694 387.134 214.679 387.181 214.674 387.231C214.174 391.764 216.044 394.198 220.284 394.532C222.777 394.732 224.794 393.728 226.334 391.521C226.608 391.13 227.015 390.852 227.478 390.74C227.942 390.627 228.432 390.689 228.854 390.911L228.924 390.952C229.124 391.057 229.301 391.203 229.443 391.379C229.585 391.556 229.69 391.759 229.752 391.978C229.813 392.196 229.831 392.425 229.802 392.651C229.773 392.876 229.699 393.095 229.584 393.291C227.117 397.545 223.114 399.128 217.574 398.041C205.084 395.601 207.874 373.611 220.254 373.681ZM268.379 379.943C266.8 380.025 265.332 380.979 264.298 382.594C263.263 384.209 262.747 386.352 262.862 388.553C262.978 390.754 263.715 392.832 264.913 394.329C266.111 395.827 267.67 396.622 269.249 396.539C270.827 396.457 272.296 395.504 273.33 393.889C274.365 392.274 274.881 390.13 274.766 387.929C274.65 385.728 273.912 383.65 272.715 382.153C271.517 380.655 269.957 379.86 268.379 379.943ZM153.975 363.751C154.24 363.762 154.494 363.869 154.688 364.052C154.883 364.236 155.006 364.484 155.034 364.751L156.794 381.851C156.805 381.931 156.84 382.006 156.895 382.065C156.95 382.124 157.023 382.165 157.102 382.181C157.18 382.197 157.262 382.189 157.336 382.157C157.41 382.124 157.473 382.07 157.515 382.001L165.185 368.721C165.566 368.06 166.196 367.579 166.935 367.382C167.673 367.185 168.46 367.289 169.124 367.671L169.614 367.952C169.798 368.058 169.957 368.203 170.079 368.377C170.201 368.552 170.284 368.751 170.321 368.96C170.358 369.17 170.35 369.385 170.295 369.591C170.24 369.797 170.14 369.988 170.004 370.152C168.691 371.732 167.62 373.162 166.794 374.442C162.807 380.642 158.817 386.735 154.824 392.721C153.038 395.394 150.478 396.478 147.144 395.971C146.732 395.91 146.357 395.698 146.091 395.377C145.825 395.056 145.687 394.647 145.704 394.231L145.794 392.171C145.807 391.876 145.936 391.597 146.153 391.397C146.371 391.196 146.659 391.09 146.954 391.101L150.725 391.271C151.02 391.283 151.313 391.211 151.568 391.062C151.824 390.913 152.03 390.694 152.164 390.431C153.024 388.731 153.29 386.778 152.964 384.572C152.597 382.058 151.868 376.468 150.774 367.801C150.614 366.535 150.375 365.435 150.055 364.501C150.018 364.397 150.007 364.286 150.024 364.177C150.041 364.068 150.085 363.965 150.151 363.877C150.218 363.789 150.304 363.719 150.404 363.672C150.504 363.626 150.615 363.605 150.725 363.612L153.975 363.751ZM185.714 360.742L188.734 361.072C189.202 361.123 189.638 361.335 189.968 361.672C190.297 362.009 190.501 362.451 190.544 362.921C191.197 370.588 192.804 378.708 195.364 387.282C195.372 387.311 195.388 387.338 195.411 387.358C195.434 387.378 195.464 387.391 195.494 387.394C195.524 387.397 195.555 387.391 195.582 387.376C195.609 387.362 195.631 387.338 195.644 387.311L206.424 365.572C206.638 365.141 206.979 364.786 207.401 364.555C207.823 364.324 208.306 364.229 208.784 364.282L211.344 364.561C211.539 364.583 211.726 364.654 211.888 364.766C212.049 364.878 212.181 365.029 212.27 365.204C212.36 365.38 212.404 365.574 212.399 365.771C212.395 365.968 212.341 366.16 212.244 366.331L196.694 393.791C196.57 394.007 196.39 394.183 196.174 394.301C194.661 395.161 193.254 395.164 191.954 394.311C191.856 394.251 191.771 394.171 191.706 394.077C191.641 393.982 191.596 393.874 191.574 393.761L184.685 361.891C184.652 361.744 184.654 361.591 184.692 361.445C184.731 361.299 184.804 361.164 184.904 361.052C185.005 360.94 185.131 360.853 185.271 360.799C185.412 360.745 185.564 360.725 185.714 360.742ZM331.597 378.206C330.278 376.815 328.642 376.146 327.047 376.344C325.452 376.543 324.029 377.594 323.092 379.266C322.155 380.938 321.78 383.094 322.05 385.26C322.32 387.426 323.213 389.425 324.531 390.816C325.85 392.207 327.486 392.877 329.081 392.678C330.676 392.479 332.098 391.428 333.035 389.756C333.972 388.084 334.347 385.928 334.077 383.762C333.807 381.596 332.915 379.598 331.597 378.206ZM368.664 358.061C374.154 357.891 376.844 363.171 375.954 368.051C375.674 369.571 374.897 370.658 373.624 371.311C373.568 371.341 373.522 371.389 373.493 371.446C373.464 371.502 373.452 371.567 373.46 371.63C373.467 371.693 373.494 371.753 373.535 371.801C373.577 371.849 373.633 371.885 373.694 371.902C378.784 373.162 381.175 376.732 380.305 381.862C379.455 386.911 375.464 388.971 370.394 390.041C364.868 391.195 361.084 392.015 359.044 392.501C358.878 392.541 358.706 392.547 358.537 392.519C358.368 392.491 358.207 392.43 358.062 392.338C357.918 392.247 357.793 392.128 357.695 391.988C357.598 391.847 357.529 391.688 357.494 391.521L351.094 361.931C351.076 361.851 351.077 361.767 351.093 361.687C351.109 361.606 351.141 361.53 351.187 361.462C351.234 361.395 351.295 361.338 351.365 361.295C351.435 361.252 351.513 361.223 351.594 361.211C356.094 360.541 362.444 358.261 368.664 358.061ZM372.835 376.092C371.509 375.432 369.89 375.273 368.334 375.651L361.063 377.411C360.719 377.495 360.422 377.71 360.236 378.012C360.051 378.314 359.992 378.676 360.073 379.021L361.863 386.411C361.904 386.583 361.979 386.744 362.083 386.887C362.187 387.03 362.317 387.151 362.468 387.243C362.618 387.334 362.786 387.396 362.96 387.423C363.134 387.45 363.312 387.442 363.483 387.401L370.754 385.641C371.525 385.454 372.257 385.141 372.909 384.72C373.561 384.299 374.119 383.777 374.553 383.186C374.986 382.594 375.287 381.944 375.436 381.273C375.586 380.601 375.581 379.92 375.424 379.271L375.403 379.171C375.084 377.86 374.161 376.752 372.835 376.092ZM391.235 361.21C392.499 360.9 393.811 360.842 395.098 361.038C396.384 361.235 397.619 361.684 398.732 362.358C399.846 363.032 400.815 363.918 401.586 364.967C402.356 366.016 402.912 367.206 403.223 368.47L404.263 372.704C404.89 375.257 404.477 377.954 403.115 380.202C401.754 382.45 399.555 384.066 397.003 384.693L395.294 385.113C394.03 385.423 392.717 385.481 391.431 385.285C390.144 385.088 388.909 384.639 387.796 383.965C386.683 383.291 385.714 382.404 384.943 381.355C384.173 380.306 383.616 379.116 383.306 377.852L382.266 373.618C381.639 371.065 382.052 368.368 383.413 366.12C384.774 363.872 386.973 362.257 389.525 361.63L391.235 361.21ZM133.077 349.32C133.399 349.299 133.722 349.347 134.024 349.461L134.475 349.641C134.752 349.747 135.005 349.907 135.221 350.112C135.436 350.316 135.61 350.562 135.73 350.834C135.851 351.106 135.917 351.4 135.925 351.698C135.932 351.996 135.881 352.293 135.774 352.572L132.884 360.121C132.852 360.201 132.845 360.289 132.863 360.373C132.882 360.457 132.925 360.534 132.987 360.593C133.05 360.652 133.129 360.691 133.214 360.705C133.299 360.719 133.386 360.707 133.464 360.671C136.584 359.318 139.454 359.251 142.074 360.471C145.321 361.978 146.634 364.465 146.015 367.931C145.308 371.891 143.795 377.065 141.475 383.452C141.39 383.687 141.259 383.903 141.09 384.087C140.92 384.272 140.715 384.42 140.487 384.525C140.259 384.629 140.012 384.687 139.761 384.695C139.51 384.703 139.259 384.661 139.024 384.572L138.634 384.421C138.178 384.246 137.8 383.912 137.568 383.483C137.337 383.053 137.268 382.556 137.374 382.081C138.121 378.715 139.098 375.331 140.305 371.931C141.091 369.711 141.394 368.031 141.214 366.891C140.594 363.151 135.504 362.811 132.914 364.421C132.034 364.961 131.244 366.345 130.544 368.572C129.151 373.011 128.084 376.635 127.344 379.442C127.266 379.736 127.126 380.01 126.934 380.244C126.741 380.479 126.499 380.67 126.226 380.803C125.952 380.936 125.653 381.008 125.35 381.015C125.045 381.022 124.743 380.962 124.464 380.841L124.294 380.771C123.685 380.505 123.197 380.022 122.925 379.415C122.653 378.809 122.617 378.123 122.824 377.492C125.174 370.312 128.934 360.211 131.024 351.061C131.096 350.748 131.234 350.454 131.43 350.199C131.625 349.943 131.873 349.732 132.157 349.58C132.441 349.429 132.755 349.34 133.077 349.32ZM220.794 377.791C219.411 377.658 218.034 378.073 216.963 378.943C215.892 379.813 215.216 381.067 215.084 382.431L215.074 382.611C215.06 382.75 215.101 382.89 215.189 382.998C215.277 383.107 215.405 383.176 215.544 383.191L225.874 384.181C226.013 384.195 226.152 384.154 226.261 384.066C226.369 383.978 226.439 383.85 226.454 383.711L226.474 383.532C226.539 382.856 226.468 382.173 226.267 381.523C226.065 380.873 225.735 380.269 225.297 379.744C224.859 379.22 224.32 378.785 223.712 378.465C223.104 378.146 222.439 377.947 221.754 377.881L220.794 377.791ZM395.947 366.394C394.382 365.195 392.585 364.77 390.952 365.213C389.319 365.657 387.984 366.933 387.24 368.759C386.497 370.586 386.406 372.814 386.987 374.953C387.569 377.093 388.774 378.969 390.34 380.168C391.905 381.368 393.703 381.793 395.336 381.349C396.969 380.905 398.303 379.63 399.047 377.803C399.79 375.977 399.882 373.748 399.301 371.609C398.719 369.469 397.513 367.593 395.947 366.394ZM416.055 353.961C418.481 353.775 420.525 354.898 422.185 357.331C422.331 357.546 422.429 357.789 422.473 358.045C422.516 358.301 422.504 358.564 422.436 358.815C422.369 359.066 422.248 359.299 422.082 359.498C421.916 359.698 421.709 359.859 421.475 359.971L420.984 360.211C420.574 360.408 420.109 360.459 419.666 360.358C419.223 360.256 418.827 360.007 418.544 359.652C415.464 355.792 409.385 358.771 410.024 363.681C410.043 363.83 410.116 363.969 410.227 364.07C410.339 364.17 410.483 364.227 410.634 364.231C413.62 364.271 416.971 364.125 420.685 363.791C423.234 363.562 425.354 365.601 426.134 368.091C428.464 375.471 421.864 378.941 415.664 379.631C412.351 379.998 409.981 378.697 408.555 375.731C408.161 374.904 408.131 374.291 408.464 373.891C408.916 373.348 409.558 373 410.254 372.917C410.95 372.835 411.646 373.027 412.194 373.452C413.174 374.218 413.968 374.831 414.574 375.291C414.972 375.593 415.469 375.732 415.964 375.681C417.87 375.488 419.857 374.581 421.924 372.961C422.061 372.856 422.172 372.72 422.248 372.564C422.324 372.408 422.364 372.235 422.364 372.061C422.364 369.041 420.894 368.712 418.084 368.952C416.457 369.091 414.158 369.165 411.185 369.171C408.185 369.171 406.341 367.821 405.654 365.121C403.824 357.941 410.075 354.411 416.055 353.961ZM120.951 348.16C121.429 347.92 121.982 347.874 122.494 348.032L122.595 348.061C122.88 348.152 123.144 348.3 123.372 348.495C123.6 348.691 123.787 348.929 123.921 349.198C124.055 349.466 124.134 349.759 124.153 350.058C124.173 350.357 124.132 350.657 124.034 350.941L122.935 354.081C122.899 354.186 122.883 354.296 122.891 354.407C122.898 354.516 122.927 354.624 122.977 354.722C123.026 354.821 123.095 354.909 123.179 354.981C123.262 355.053 123.359 355.107 123.464 355.141L125.454 355.751C125.594 355.797 125.72 355.878 125.82 355.989C125.92 356.099 125.991 356.235 126.024 356.381C126.304 357.708 126.004 358.644 125.124 359.191C124.995 359.266 124.852 359.315 124.706 359.332C124.56 359.35 124.413 359.335 124.274 359.291L122.294 358.681C122.135 358.632 121.963 358.645 121.812 358.717C121.662 358.789 121.545 358.916 121.484 359.072L116.504 372.072C116.435 372.254 116.404 372.449 116.413 372.643C116.422 372.837 116.47 373.028 116.556 373.202C116.641 373.377 116.762 373.531 116.909 373.657C117.057 373.782 117.229 373.875 117.414 373.931C119.324 374.511 120.754 375.791 119.414 377.791C119.302 377.954 119.148 378.082 118.969 378.163C118.789 378.244 118.59 378.275 118.394 378.251C115.935 377.925 114.071 377.151 112.805 375.931C112.409 375.556 112.126 375.078 111.988 374.551C111.85 374.025 111.863 373.47 112.024 372.952L116.714 357.862C116.772 357.673 116.763 357.47 116.688 357.287C116.614 357.105 116.478 356.955 116.305 356.862C114.745 356.022 114.394 355.421 114.744 353.362C114.757 353.288 114.786 353.218 114.829 353.157C114.872 353.095 114.928 353.044 114.993 353.007C115.058 352.97 115.13 352.947 115.204 352.941C115.278 352.935 115.354 352.945 115.424 352.971L116.904 353.541C117.083 353.61 117.273 353.642 117.464 353.635C117.655 353.629 117.842 353.584 118.016 353.504C118.189 353.424 118.345 353.31 118.474 353.168C118.602 353.027 118.701 352.861 118.765 352.681L119.935 349.322C120.11 348.818 120.474 348.401 120.951 348.16ZM111.27 342.194C111.595 342.048 111.964 342.037 112.296 342.163L114.128 342.86C114.46 342.986 114.728 343.239 114.874 343.563C115.02 343.887 115.03 344.256 114.904 344.588L104.301 372.502C104.174 372.834 103.922 373.103 103.598 373.248C103.273 373.394 102.904 373.405 102.572 373.279L100.74 372.583C100.408 372.457 100.14 372.203 99.9941 371.879C99.8486 371.555 99.8378 371.187 99.9638 370.855L110.567 342.941C110.694 342.609 110.946 342.339 111.27 342.194ZM367.441 362.442C366.853 362.406 366.242 362.457 365.644 362.591L357.943 364.311C357.809 364.342 357.682 364.399 357.569 364.479C357.457 364.559 357.36 364.66 357.287 364.777C357.214 364.894 357.164 365.024 357.142 365.16C357.119 365.297 357.122 365.436 357.153 365.571L358.644 372.242C358.703 372.513 358.869 372.75 359.103 372.9C359.338 373.05 359.622 373.101 359.894 373.041L367.594 371.321C368.191 371.187 368.764 370.973 369.28 370.691C369.797 370.408 370.246 370.063 370.602 369.675C370.959 369.287 371.216 368.864 371.358 368.429C371.501 367.994 371.527 367.556 371.434 367.141L370.903 364.742C370.811 364.325 370.602 363.939 370.288 363.606C369.974 363.272 369.561 362.998 369.072 362.798C368.584 362.599 368.03 362.477 367.441 362.442ZM286.506 366.952C286.804 366.92 287.102 367.008 287.336 367.196C287.569 367.383 287.719 367.657 287.751 367.954L288.091 371.076C288.123 371.373 288.035 371.672 287.848 371.906C287.66 372.139 287.387 372.289 287.089 372.322L284.803 372.57C284.505 372.602 284.206 372.514 283.973 372.327C283.739 372.139 283.589 371.866 283.557 371.569L283.218 368.447C283.185 368.149 283.273 367.85 283.461 367.617C283.649 367.383 283.922 367.234 284.22 367.202L286.506 366.952ZM427.468 343.566C427.682 343.586 427.889 343.65 428.076 343.756C428.263 343.862 428.426 344.006 428.553 344.179C428.68 344.352 428.769 344.551 428.814 344.761L429.734 349.011C429.761 349.13 429.816 349.241 429.894 349.334C429.974 349.427 430.074 349.5 430.187 349.545C430.301 349.591 430.424 349.607 430.545 349.594C430.666 349.581 430.782 349.539 430.884 349.471C432.39 348.444 433.611 348.215 434.544 348.782C434.661 348.851 434.763 348.944 434.842 349.054C434.921 349.164 434.976 349.289 435.004 349.421L435.384 351.221C435.422 351.397 435.426 351.579 435.394 351.756C435.363 351.933 435.298 352.103 435.201 352.254C435.105 352.406 434.979 352.537 434.832 352.639C434.685 352.741 434.519 352.813 434.344 352.851L432.244 353.301C432.167 353.318 432.095 353.352 432.031 353.399C431.968 353.445 431.915 353.505 431.876 353.573C431.837 353.641 431.814 353.716 431.807 353.793C431.799 353.87 431.809 353.948 431.834 354.021L436.374 367.141C436.438 367.329 436.569 367.487 436.74 367.584C436.912 367.682 437.112 367.713 437.304 367.671L440.094 367.061C440.434 366.987 440.789 367.021 441.108 367.158C441.428 367.295 441.697 367.528 441.878 367.826C442.059 368.123 442.142 368.47 442.116 368.817C442.09 369.164 441.957 369.494 441.734 369.761C441.041 370.601 439.991 371.271 438.584 371.771C434.074 373.391 432.314 371.041 431.364 366.871C430.804 364.425 429.871 361.444 428.564 357.931C428.411 357.504 428.324 356.941 428.304 356.242C428.29 355.702 428.217 355.312 428.084 355.072C427.998 354.953 427.883 354.858 427.75 354.796C427.617 354.735 427.47 354.709 427.324 354.721L424.964 354.871C424.686 354.888 424.409 354.826 424.165 354.694C423.921 354.561 423.719 354.363 423.582 354.122C423.445 353.881 423.38 353.606 423.393 353.33C423.405 353.054 423.496 352.787 423.654 352.561C423.994 352.061 424.527 351.574 425.254 351.101C425.574 350.891 425.808 350.572 425.911 350.204C426.014 349.836 425.98 349.444 425.814 349.101L424.424 346.221C424.335 346.032 424.286 345.826 424.281 345.618C424.276 345.409 424.315 345.201 424.395 345.009C424.476 344.817 424.596 344.643 424.747 344.5C424.898 344.358 425.078 344.249 425.274 344.181L426.834 343.641C427.037 343.571 427.254 343.546 427.468 343.566ZM83.3144 345.952C87.2844 340.542 92.7339 342.682 97.7539 345.742C100.721 347.548 101.561 350.038 100.274 353.211C98.9544 356.485 97.3813 360.452 95.5546 365.112C95.4242 365.444 95.3921 365.806 95.4638 366.152C95.5905 366.785 95.8539 367.412 96.2539 368.032C96.3882 368.24 96.4688 368.482 96.4853 368.73C96.5018 368.978 96.4536 369.224 96.3476 369.44C96.2416 369.656 96.0807 369.835 95.8828 369.956C95.6849 370.078 95.4573 370.139 95.2246 370.131C92.8246 370.045 91.2238 368.761 90.4238 366.282C90.3797 366.141 90.2934 366.018 90.1767 365.93C90.0601 365.842 89.9194 365.794 89.7744 365.791C89.6744 365.785 89.2639 365.905 88.5439 366.152C86.2539 366.911 82.8638 366.061 80.8339 365.081C76.5741 363.031 75.2446 358.251 78.4746 354.641C82.8145 349.781 88.7846 353.012 93.8544 354.242C94.062 354.291 94.2778 354.292 94.4843 354.243C94.691 354.195 94.883 354.098 95.0439 353.961C96.4839 352.741 96.9941 350.071 95.0341 348.791C93.5275 347.811 92.0007 347.145 90.4541 346.791C89.9725 346.681 89.4667 346.719 89.0039 346.902C87.444 347.522 85.6442 349.211 83.8144 348.391C83.607 348.299 83.4256 348.158 83.2841 347.978C83.1426 347.797 83.044 347.582 82.996 347.348C82.9482 347.114 82.9518 346.867 83.0068 346.625C83.0618 346.384 83.1673 346.154 83.3144 345.952ZM450.483 342.455C451.797 342.497 453.091 342.796 454.289 343.337C455.487 343.878 456.566 344.651 457.466 345.609C458.366 346.567 459.069 347.693 459.533 348.922L461.173 353.263C461.637 354.493 461.856 355.802 461.814 357.116C461.773 358.429 461.473 359.722 460.933 360.92C460.392 362.118 459.62 363.198 458.662 364.098C457.704 364.998 456.577 365.701 455.348 366.165L453.758 366.766C452.528 367.231 451.218 367.448 449.904 367.407C448.591 367.365 447.298 367.066 446.1 366.525C444.902 365.984 443.822 365.212 442.922 364.254C442.022 363.296 441.32 362.17 440.855 360.941L439.215 356.6C438.75 355.37 438.533 354.061 438.574 352.747C438.615 351.434 438.915 350.141 439.456 348.943C439.997 347.745 440.768 346.665 441.727 345.765C442.685 344.865 443.811 344.162 445.041 343.698L446.631 343.097C447.86 342.632 449.17 342.414 450.483 342.455ZM83.7539 356.141C83.3431 356.105 82.9348 356.233 82.6181 356.497C82.3014 356.762 82.1015 357.14 82.0634 357.551L82.0234 358.001C81.9643 358.649 82.0389 359.302 82.2431 359.924C82.4473 360.546 82.7774 361.124 83.2138 361.625C83.6502 362.127 84.1849 362.541 84.7871 362.846C85.3893 363.151 86.0473 363.339 86.7236 363.401L87.0341 363.431C87.7102 363.493 88.3917 363.426 89.039 363.236C89.6863 363.045 90.2876 362.734 90.8076 362.32C91.3273 361.906 91.756 361.397 92.0693 360.823C92.3827 360.248 92.5747 359.619 92.6337 358.971L92.6738 358.521C92.7098 358.11 92.5815 357.702 92.3173 357.385C92.0531 357.068 91.6743 356.869 91.2636 356.831L83.7539 356.141ZM451.965 347.635C450.249 346.623 448.432 346.424 446.914 347.084C446.163 347.411 445.507 347.939 444.985 348.637C444.463 349.335 444.085 350.19 443.872 351.154C443.659 352.117 443.616 353.17 443.744 354.251C443.873 355.333 444.171 356.424 444.621 357.459C445.53 359.551 447.006 361.295 448.722 362.307C450.438 363.319 452.255 363.517 453.772 362.858C454.524 362.531 455.18 362.003 455.702 361.305C456.224 360.607 456.602 359.752 456.815 358.788C457.028 357.825 457.072 356.772 456.943 355.691C456.815 354.609 456.517 353.518 456.066 352.483C455.157 350.391 453.681 348.648 451.965 347.635ZM466.225 335.731C468.445 333.931 472.095 331.802 475.064 333.242C477.131 334.242 478.545 335.498 479.305 337.011C482.478 343.284 484.704 347.558 485.984 349.831C486.116 350.066 486.198 350.326 486.227 350.593C486.255 350.86 486.228 351.13 486.148 351.386C486.069 351.642 485.938 351.878 485.764 352.08C485.589 352.282 485.374 352.446 485.134 352.561L483.904 353.152C483.501 353.344 483.038 353.369 482.616 353.221C482.195 353.073 481.849 352.764 481.654 352.362L475.564 339.702C475.307 339.165 474.936 338.691 474.477 338.312C474.019 337.933 473.485 337.656 472.91 337.503C472.335 337.35 471.734 337.324 471.147 337.425C470.561 337.527 470.004 337.754 469.515 338.091L469.144 338.351C468.03 339.12 467.226 340.263 466.88 341.573C466.533 342.882 466.666 344.272 467.254 345.492L472.774 356.971C472.887 357.209 472.945 357.47 472.943 357.734C472.941 357.997 472.88 358.257 472.764 358.493C472.647 358.73 472.479 358.938 472.271 359.1C472.064 359.262 471.822 359.375 471.564 359.431L470.725 359.612C470.277 359.709 469.808 359.652 469.396 359.451C468.985 359.249 468.653 358.914 468.454 358.501C464.754 350.915 462.291 345.898 461.064 343.452C460.171 341.665 459.658 339.938 459.524 338.271C459.509 338.087 459.548 337.903 459.635 337.742C459.722 337.58 459.854 337.448 460.015 337.362C460.754 336.955 461.597 336.821 462.544 336.961C462.708 336.987 462.861 337.062 462.982 337.176C463.104 337.29 463.188 337.438 463.225 337.601L463.685 339.761C463.709 339.859 463.764 339.947 463.843 340.011C463.921 340.075 464.018 340.112 464.119 340.117C464.22 340.121 464.32 340.093 464.404 340.036C464.488 339.98 464.551 339.897 464.584 339.801L465.524 336.782C465.648 336.371 465.892 336.004 466.225 335.731ZM56.2744 345.591C57.0845 336.571 66.5341 328.801 74.9541 335.621C78.744 338.691 78.8439 342.531 78.2939 347.541C78.1939 348.488 77.8811 349.275 77.3544 349.902C77.0644 350.251 76.6637 350.497 76.2119 350.601C75.76 350.705 75.2801 350.663 74.8437 350.481C69.9839 348.454 65.7603 346.445 62.1738 344.452C62.0952 344.407 62.0081 344.379 61.9179 344.371C61.8276 344.364 61.7363 344.375 61.6503 344.406C61.5644 344.436 61.4855 344.484 61.4189 344.547C61.3525 344.61 61.3001 344.686 61.2646 344.771C60.7513 346.031 60.6412 347.485 60.9345 349.131C61.5645 352.601 64.8544 354.921 68.2744 353.371C69.9042 352.632 72.1136 351.742 73.3437 352.721C73.5221 352.862 73.6624 353.046 73.7529 353.256C73.8434 353.467 73.8826 353.699 73.8662 353.935C73.8497 354.17 73.7781 354.403 73.6582 354.614C73.5382 354.825 73.3721 355.009 73.1738 355.152C68.1874 358.705 63.4008 358.371 58.8144 354.152C56.7811 352.278 55.9344 349.424 56.2744 345.591ZM42.1142 308.788C42.2728 308.809 42.4261 308.861 42.5644 308.941L45.124 310.421C45.2622 310.501 45.3834 310.607 45.4804 310.734C45.5774 310.86 45.6485 311.005 45.6894 311.16C45.7303 311.314 45.7402 311.475 45.7187 311.633C45.6971 311.791 45.6451 311.944 45.5644 312.081L40.3242 321.161C40.2435 321.299 40.1904 321.452 40.1689 321.61C40.1474 321.768 40.1574 321.928 40.1982 322.082C40.239 322.236 40.3103 322.382 40.4072 322.508C40.5042 322.635 40.6263 322.742 40.7646 322.822L51.624 329.091C51.7617 329.172 51.9141 329.225 52.0722 329.246C52.2304 329.268 52.3915 329.258 52.5458 329.217C52.7001 329.176 52.8449 329.105 52.9716 329.008C53.0983 328.911 53.2045 328.79 53.2841 328.652L58.5244 319.581C58.6836 319.303 58.9465 319.099 59.2558 319.015C59.5651 318.931 59.8953 318.972 60.1738 319.131L62.5146 320.492C62.7909 320.652 62.9927 320.916 63.0751 321.225C63.1576 321.534 63.1138 321.864 62.9541 322.141L48.1142 347.871C48.0345 348.01 47.9284 348.131 47.8017 348.228C47.675 348.325 47.5302 348.396 47.3759 348.437C47.2216 348.478 47.0605 348.488 46.9023 348.466C46.7442 348.445 46.5918 348.392 46.4541 348.311L43.9345 346.862C43.7962 346.782 43.6751 346.675 43.5781 346.548C43.481 346.421 43.41 346.277 43.3691 346.122C43.3283 345.968 43.3183 345.808 43.3398 345.65C43.3613 345.492 43.4135 345.339 43.4941 345.202L49.6943 334.461C49.7749 334.324 49.827 334.171 49.8486 334.013C49.8701 333.855 49.8602 333.694 49.8193 333.539C49.7784 333.385 49.7073 333.24 49.6103 333.114C49.5133 332.987 49.392 332.881 49.2539 332.801L38.1845 326.411C37.9062 326.253 37.5758 326.21 37.2666 326.294C36.9572 326.379 36.6934 326.583 36.5341 326.862L30.8046 336.782C30.6676 337.018 30.4543 337.2 30.2001 337.3C29.946 337.4 29.6654 337.411 29.4042 337.331L26.9238 336.561C26.7505 336.507 26.5918 336.415 26.4589 336.291C26.326 336.168 26.2225 336.016 26.1562 335.847C26.09 335.678 26.0626 335.496 26.0761 335.315C26.0897 335.134 26.1437 334.958 26.2343 334.801L40.9042 309.391C40.9831 309.252 41.0885 309.13 41.2148 309.032C41.3411 308.934 41.4862 308.862 41.6406 308.82C41.7948 308.778 41.9558 308.768 42.1142 308.788ZM68.7539 337.204C68.002 337.183 67.2537 337.31 66.5517 337.577C65.8497 337.845 65.2073 338.248 64.6621 338.763C64.1169 339.278 63.6795 339.897 63.374 340.581L63.3242 340.681C63.3145 340.701 63.3083 340.723 63.3076 340.745C63.3069 340.768 63.3109 340.79 63.3193 340.811C63.3277 340.832 63.3413 340.85 63.3574 340.866C63.3736 340.881 63.3929 340.893 63.414 340.901L73.5839 345.431C73.6224 345.448 73.6658 345.449 73.705 345.434C73.7443 345.419 73.7764 345.389 73.7939 345.351L73.8437 345.251C74.1492 344.566 74.3167 343.828 74.3359 343.077C74.355 342.327 74.2253 341.579 73.955 340.878C73.6848 340.177 73.279 339.536 72.7607 338.991C72.2423 338.445 71.6211 338.008 70.9335 337.702C70.2463 337.395 69.5057 337.226 68.7539 337.204ZM410.185 258.921C435.878 256.155 461.158 258.235 486.024 265.161L501.475 270.421C512.234 274.661 523.875 280.512 532.515 288.152C535.654 290.922 539.185 293.492 542.064 296.411C554.311 308.851 563.471 323.322 569.544 339.822C569.573 339.896 569.574 339.977 569.548 340.052C569.521 340.127 569.468 340.19 569.398 340.229C569.329 340.268 569.248 340.281 569.17 340.265C569.092 340.249 569.023 340.204 568.975 340.141C567.585 338.381 565.894 336.131 564.064 334.452C548.724 320.352 530.834 311.554 510.394 308.061C498.228 305.981 485.674 305.854 472.734 307.681C457.401 309.841 441.464 314.978 424.924 323.091C423.87 319.658 422.144 316.467 419.744 313.521C413.711 306.108 406.801 300.088 399.015 295.461C385.721 287.568 371.397 282.918 356.044 281.511C345.524 280.551 335.19 280.435 325.044 281.161C323.044 281.301 321.354 281.801 319.854 282.101C319.552 282.167 319.237 282.16 318.935 282.081C318.128 281.881 317.344 281.524 316.584 281.011C321.07 279.284 325.587 277.728 330.134 276.341C349.28 270.494 366.078 266.098 380.524 263.152C387.691 261.692 397.578 260.281 410.185 258.921Z" fill="#F68D2E"/>
<path d="M264.634 40.3613C264.661 40.3613 264.691 40.3646 264.724 40.3713C264.775 40.3831 264.82 40.398 264.853 40.414C264.887 40.4301 264.908 40.4465 264.914 40.4613C272.201 54.7747 279.191 69.4813 285.884 84.5813C290.124 94.1413 291.974 103.461 287.004 113.041C282.464 121.781 273.964 126.711 264.314 126.671C254.654 126.641 246.194 121.641 241.724 112.871C236.824 103.261 238.734 93.9513 243.054 84.4213C249.854 69.3747 256.951 54.7213 264.344 40.4613C264.349 40.4465 264.369 40.4299 264.403 40.4139C264.437 40.3978 264.483 40.383 264.534 40.3713C264.567 40.3646 264.601 40.3613 264.634 40.3613Z" fill="#08C5F8"/>
<path d="M124.843 174.651H107.353C107.276 174.651 107.203 174.681 107.148 174.733C107.094 174.786 107.063 174.857 107.063 174.931V235.741C107.063 235.924 106.991 236.1 106.861 236.229C106.732 236.358 106.556 236.431 106.373 236.431H80.4734C80.3195 236.431 80.172 236.371 80.0633 236.264C79.9545 236.157 79.8934 236.012 79.8934 235.861V174.961C79.8934 174.887 79.8639 174.816 79.8114 174.763C79.7589 174.711 79.6876 174.681 79.6134 174.681H68.6834C68.5534 174.681 68.4288 174.629 68.3369 174.535C68.245 174.441 68.1934 174.314 68.1934 174.181V152.861C68.1933 152.773 68.211 152.686 68.2455 152.605C68.2801 152.524 68.3307 152.451 68.3942 152.391C68.4578 152.33 68.5331 152.283 68.6154 152.252C68.6978 152.221 68.7855 152.207 68.8734 152.211L79.1934 152.651C79.2926 152.655 79.3916 152.639 79.4843 152.604C79.577 152.568 79.6616 152.514 79.7327 152.445C79.8038 152.376 79.8601 152.293 79.898 152.201C79.936 152.109 79.9548 152.01 79.9534 151.911C79.8867 145.005 79.9234 138.135 80.0634 131.301C80.5034 110.481 95.8334 95.9412 116.583 96.8312C122.113 97.0712 128.503 98.1912 133.773 100.721C133.886 100.777 133.974 100.871 134.024 100.987C134.073 101.102 134.08 101.231 134.043 101.351L127.303 123.031C127.286 123.09 127.256 123.145 127.216 123.191C127.176 123.238 127.126 123.276 127.071 123.302C127.015 123.329 126.954 123.343 126.893 123.345C126.831 123.346 126.77 123.335 126.713 123.311C123.507 121.998 121.527 121.301 120.773 121.221C111.887 120.308 107.33 124.191 107.103 132.871C106.89 140.925 106.923 147.238 107.203 151.811C107.211 151.949 107.272 152.079 107.375 152.174C107.477 152.269 107.613 152.322 107.753 152.321H124.773C124.943 152.321 125.106 152.389 125.226 152.509C125.346 152.629 125.413 152.791 125.413 152.961V174.081C125.413 174.232 125.353 174.377 125.246 174.484C125.14 174.591 124.995 174.651 124.843 174.651Z" fill="white"/>
<path d="M388.253 99.4612C388.253 99.2093 388.354 98.9676 388.532 98.7895C388.71 98.6113 388.951 98.5112 389.203 98.5112H414.823C414.897 98.5112 414.97 98.5257 415.038 98.5539C415.106 98.582 415.167 98.6233 415.219 98.6753C415.271 98.7273 415.313 98.789 415.341 98.8569C415.369 98.9249 415.383 98.9977 415.383 99.0712V160.221C415.383 160.324 415.415 160.425 415.473 160.51C415.532 160.595 415.615 160.661 415.711 160.698C415.808 160.734 415.913 160.741 416.014 160.717C416.114 160.692 416.205 160.638 416.273 160.561C421.783 154.391 428.353 150.771 436.993 150.041C450.733 148.871 465.493 154.851 470.023 168.961C471.39 173.215 472.093 177.338 472.133 181.331C472.193 188.038 472.187 206.215 472.113 235.861C472.113 236.012 472.052 236.157 471.944 236.264C471.835 236.371 471.687 236.431 471.533 236.431H445.733C445.565 236.431 445.404 236.364 445.284 236.244C445.165 236.125 445.096 235.962 445.093 235.791C445.073 218.078 445.037 203.431 444.983 191.851C444.943 182.761 443.663 174.741 434.263 172.841C428.663 171.711 422.193 173.941 419.083 178.471C416.61 182.071 415.37 186.361 415.363 191.341C415.363 204.195 415.327 218.998 415.253 235.751C415.253 235.838 415.237 235.924 415.204 236.004C415.171 236.084 415.123 236.157 415.063 236.218C415.003 236.279 414.931 236.328 414.852 236.361C414.773 236.394 414.689 236.411 414.603 236.411H388.803C388.731 236.411 388.66 236.397 388.593 236.369C388.526 236.34 388.466 236.299 388.414 236.247C388.363 236.195 388.323 236.133 388.295 236.066C388.268 235.998 388.253 235.925 388.253 235.851V99.4612Z" fill="white"/>
<path d="M295.984 215.391C296.025 215.407 296.062 215.432 296.094 215.463C296.125 215.495 296.149 215.532 296.165 215.574C296.181 215.615 296.189 215.659 296.186 215.704C296.184 215.748 296.173 215.791 296.154 215.831C286.794 235.261 267.054 241.791 246.654 237.741C231.734 234.788 221.267 226.608 215.254 213.201C208.094 197.241 210.694 177.571 222.344 164.241C239.904 144.141 274.954 144.511 290.204 167.351C296.184 176.301 298.144 186.611 297.554 197.551C297.541 197.792 297.437 198.018 297.264 198.184C297.091 198.349 296.862 198.441 296.624 198.441H239.364C239.319 198.441 239.275 198.45 239.234 198.468C239.193 198.486 239.156 198.512 239.126 198.545C239.096 198.578 239.073 198.617 239.059 198.66C239.045 198.702 239.039 198.747 239.044 198.791C240.874 219.111 265.864 223.631 276.334 206.931C276.392 206.837 276.471 206.756 276.563 206.695C276.655 206.633 276.759 206.591 276.869 206.572C276.978 206.553 277.091 206.558 277.198 206.585C277.306 206.612 277.406 206.662 277.494 206.731C278.294 207.361 279.134 208.201 280.144 208.661C284.677 210.748 289.957 212.991 295.984 215.391Z" fill="white"/>
<path d="M371.854 156.451C371.888 156.468 371.914 156.498 371.927 156.535C371.94 156.572 371.939 156.613 371.924 156.651L363.114 174.421C363.074 174.501 363.018 174.571 362.95 174.628C362.882 174.686 362.803 174.729 362.718 174.755C362.633 174.781 362.544 174.79 362.455 174.781C362.367 174.771 362.281 174.744 362.204 174.701C357.364 172.051 342.484 166.601 339.064 173.141C337.224 176.651 340.643 178.981 343.583 180.401C348.773 182.901 356.654 185.441 362.004 188.451C381.574 199.501 376.363 227.931 356.463 235.621C346.303 239.551 335.004 239.631 324.304 237.501C317.67 236.181 311.32 233.308 305.254 228.881C305.136 228.795 305.054 228.668 305.024 228.524C304.995 228.38 305.019 228.23 305.093 228.101L316.393 208.541C316.454 208.437 316.537 208.348 316.637 208.282C316.737 208.215 316.851 208.173 316.97 208.158C317.088 208.144 317.208 208.157 317.32 208.198C317.432 208.238 317.532 208.304 317.614 208.391C321.88 212.871 327.094 215.808 333.254 217.201C337.574 218.181 343.103 218.121 344.893 213.781C346.673 209.461 343.294 206.561 339.364 204.901C327.344 199.831 315.594 195.911 312.684 182.961C309.224 167.541 318.664 155.601 333.234 151.601C346.204 148.041 359.914 150.451 371.854 156.451Z" fill="white"/>
<path d="M167.503 236.191C167.501 236.256 167.473 236.317 167.427 236.362C167.38 236.406 167.318 236.431 167.253 236.431H141.233C141.069 236.431 140.911 236.366 140.795 236.25C140.679 236.133 140.613 235.976 140.613 235.811V152.681C140.613 152.594 140.648 152.51 140.71 152.448C140.772 152.386 140.856 152.351 140.943 152.351H167.023C167.192 152.351 167.355 152.417 167.476 152.534C167.597 152.652 167.668 152.812 167.673 152.981C167.707 154.348 167.703 157.128 167.663 161.321C167.657 161.808 167.757 162.215 167.963 162.541C168.024 162.635 168.106 162.714 168.203 162.771C168.3 162.828 168.408 162.861 168.52 162.868C168.631 162.874 168.742 162.855 168.843 162.81C168.945 162.766 169.034 162.697 169.103 162.611C169.737 161.818 171.627 159.835 174.773 156.661C176.193 155.235 177.643 154.178 179.123 153.491C189.717 148.571 200.083 148.988 210.223 154.741C210.31 154.79 210.375 154.87 210.404 154.965C210.434 155.059 210.427 155.162 210.383 155.251L199.393 177.411C199.349 177.499 199.286 177.577 199.21 177.639C199.133 177.702 199.045 177.747 198.95 177.774C198.855 177.8 198.755 177.806 198.658 177.792C198.56 177.778 198.467 177.744 198.383 177.691C188.413 171.431 174.183 172.991 169.173 184.791C168.027 187.505 167.47 192.445 167.503 199.611C167.583 219.465 167.583 231.658 167.503 236.191Z" fill="white"/>
<path d="M240.074 182.531C240.069 182.531 240.064 182.529 240.06 182.525C240.056 182.522 240.054 182.516 240.054 182.511V182.451C240.04 180.539 240.417 178.642 241.163 176.869C241.91 175.097 243.011 173.483 244.404 172.121C245.797 170.759 247.454 169.674 249.282 168.93C251.109 168.185 253.071 167.795 255.054 167.781H255.314C259.318 167.754 263.168 169.26 266.019 171.97C268.869 174.68 270.486 178.371 270.514 182.231V182.291C270.514 182.296 270.512 182.302 270.508 182.305C270.504 182.309 270.499 182.311 270.494 182.311L240.074 182.531Z" fill="#011B4C"/>
</svg>
