<svg width="52" height="87" viewBox="0 0 52 87" fill="none" xmlns="http://www.w3.org/2000/svg">
<path d="M25.8064 0C25.8331 0 25.8631 0.00331258 25.8964 0.00997925C25.947 0.0218013 25.992 0.0366849 26.0259 0.0527039C26.0597 0.0687228 26.0807 0.085185 26.0864 0.100006C33.3731 14.4133 40.3631 29.12 47.0565 44.22C51.2965 53.78 53.1465 63.1 48.1765 72.68C43.6365 81.42 35.1365 86.35 25.4865 86.31C15.8265 86.28 7.36642 81.28 2.89642 72.51C-2.00358 62.9 -0.0935588 53.59 4.22644 44.06C11.0264 29.0133 18.1231 14.36 25.5165 0.100006C25.5212 0.085151 25.5418 0.0686009 25.5757 0.0525513C25.6096 0.0365017 25.6551 0.0216674 25.7064 0.00997925C25.7398 0.00331258 25.7731 0 25.8064 0Z" fill="#08C5F8"/>
</svg>
